<?xml version="1.0" standalone="no"?>
<!DOCTYPE svg PUBLIC "-//W3C//DTD SVG 20010904//EN"
 "http://www.w3.org/TR/2001/REC-SVG-20010904/DTD/svg10.dtd">
<svg version="1.0" xmlns="http://www.w3.org/2000/svg"
 width="623.000000pt" height="623.000000pt" viewBox="0 0 623.000000 623.000000"
 preserveAspectRatio="xMidYMid meet">

<g transform="translate(0.000000,623.000000) scale(0.100000,-0.100000)"
fill="#000000" stroke="none">
<path d="M2941 5009 c-761 -68 -1413 -580 -1654 -1300 -60 -179 -97 -385 -97
-544 l0 -95 235 0 235 0 0 66 c0 117 25 134 195 134 l115 0 0 148 c0 140 1
151 26 201 32 63 84 104 153 121 46 11 49 14 55 49 9 60 63 131 120 160 92 47
224 22 281 -54 50 -65 55 -98 55 -371 l0 -254 444 0 445 0 3 268 c3 251 4 269
25 307 45 84 117 128 208 128 70 0 128 -25 169 -74 31 -37 56 -92 56 -124 0
-19 8 -25 50 -35 70 -17 122 -58 154 -121 25 -50 26 -61 26 -200 l0 -147 131
-4 c129 -3 131 -3 155 -31 20 -24 24 -39 24 -98 l0 -69 235 0 c181 0 235 3
236 13 9 154 -33 431 -92 609 -251 750 -904 1259 -1689 1318 -149 11 -163 11
-299 -1z"/>
<path d="M1722 3208 c-7 -7 -12 -39 -12 -75 l0 -63 130 0 130 0 0 75 0 75
-118 0 c-78 0 -122 -4 -130 -12z"/>
<path d="M2660 3145 l0 -75 445 0 445 0 0 75 0 75 -445 0 -445 0 0 -75z"/>
<path d="M4240 3145 l0 -75 135 0 135 0 0 58 c0 86 -9 92 -153 92 l-117 0 0
-75z"/>
<path d="M1155 2872 c-10 -6 -115 -268 -115 -285 0 -4 7 -7 16 -7 9 0 22 17
31 40 l16 41 55 -3 c53 -3 56 -4 67 -38 9 -26 18 -36 37 -38 l26 -3 -27 68
c-15 37 -41 105 -57 151 -29 84 -31 87 -49 74z m19 -105 c32 -77 32 -77 -17
-77 l-45 0 21 55 c12 30 23 55 24 55 2 0 9 -15 17 -33z"/>
<path d="M2253 2872 c-7 -4 -27 -48 -46 -97 -19 -50 -44 -114 -56 -143 l-21
-53 22 3 c14 2 25 14 33 38 11 34 14 35 67 38 l55 3 16 -41 c11 -30 21 -40 37
-40 17 0 21 4 15 18 -3 9 -27 73 -52 142 -50 138 -53 142 -70 132z m26 -129
l21 -53 -45 0 -45 0 20 50 c11 28 20 54 20 57 0 13 9 -4 29 -54z"/>
<path d="M3403 2872 c-7 -4 -27 -48 -46 -97 -19 -50 -44 -114 -56 -143 l-21
-53 22 3 c14 2 25 14 33 38 11 34 14 35 67 38 l55 3 16 -41 c11 -30 21 -40 37
-40 17 0 21 4 15 18 -3 9 -27 73 -52 142 -50 138 -53 142 -70 132z m26 -129
l21 -53 -45 0 -45 0 20 50 c11 28 20 54 20 57 0 13 9 -4 29 -54z"/>
<path d="M3613 2870 c-27 -11 -43 -40 -43 -78 0 -32 27 -61 89 -94 24 -13 31
-24 31 -47 0 -45 -30 -58 -81 -33 -36 18 -39 18 -39 2 0 -56 122 -63 150 -9
11 20 13 60 4 84 -4 9 -31 31 -60 50 -42 27 -54 40 -54 60 0 34 32 50 72 36
39 -14 38 -14 38 4 0 28 -63 43 -107 25z"/>
<path d="M3810 2852 c-53 -53 -42 -84 53 -149 53 -37 60 -64 22 -89 -23 -15
-27 -15 -65 4 -39 19 -40 19 -40 0 0 -25 62 -51 101 -43 35 8 69 49 69 82 0
24 -27 54 -101 114 -25 20 -30 30 -25 47 9 27 47 38 76 22 16 -9 25 -9 33 -1
17 17 -4 32 -51 38 -36 5 -45 2 -72 -25z"/>
<path d="M4183 2870 c-27 -11 -43 -40 -43 -78 0 -32 27 -61 89 -94 24 -13 31
-24 31 -48 0 -44 -39 -58 -86 -31 -33 19 -34 20 -34 2 0 -57 121 -65 150 -10
11 20 13 60 4 84 -4 9 -31 31 -60 50 -42 27 -54 40 -54 60 0 34 32 50 72 36
39 -14 38 -14 38 4 0 28 -63 43 -107 25z"/>
<path d="M4665 2872 c-10 -6 -115 -268 -115 -284 0 -5 7 -8 16 -8 9 0 22 17
31 40 l16 41 55 -3 c53 -3 56 -4 67 -38 9 -26 18 -36 37 -38 l26 -3 -27 68
c-16 37 -41 105 -57 150 -30 85 -32 88 -49 75z m23 -117 c5 -16 13 -38 17 -47
6 -16 1 -18 -38 -18 l-45 0 21 55 c23 57 28 58 45 10z"/>
<path d="M1340 2725 c0 -138 1 -145 20 -145 19 0 20 7 20 145 0 138 -1 145
-20 145 -19 0 -20 -7 -20 -145z"/>
<path d="M1614 2854 c3 -9 6 -74 6 -145 0 -121 1 -129 20 -129 17 0 19 8 22
68 l3 67 75 0 75 0 3 -67 c3 -60 5 -68 22 -68 19 0 20 8 20 145 0 145 0 145
-23 145 -22 0 -23 -3 -19 -60 l4 -60 -81 0 -81 0 0 60 c0 58 -1 60 -26 60 -20
0 -25 -4 -20 -16z"/>
<path d="M1954 2854 c3 -9 6 -74 6 -145 l0 -129 69 0 c52 0 70 4 75 15 4 12
-5 15 -50 15 l-55 0 3 53 c2 42 6 51 19 49 23 -3 69 15 69 28 0 5 -20 10 -45
10 l-45 0 0 45 0 45 50 0 c38 0 50 4 50 15 0 12 -15 15 -76 15 -65 0 -75 -2
-70 -16z"/>
<path d="M2434 2854 c3 -9 6 -74 6 -145 l0 -129 75 0 c60 0 75 3 75 15 0 12
-13 15 -55 15 l-55 0 0 130 0 130 -26 0 c-20 0 -25 -4 -20 -16z"/>
<path d="M2570 2855 c0 -11 12 -15 50 -15 l50 0 0 -130 c0 -123 1 -130 20
-130 19 0 20 7 20 130 l0 130 50 0 c38 0 50 4 50 15 0 13 -20 15 -120 15 -100
0 -120 -2 -120 -15z"/>
<path d="M2854 2854 c3 -9 6 -74 6 -145 0 -121 1 -129 20 -129 17 0 19 8 22
67 l3 66 75 1 75 1 3 -67 c2 -56 6 -68 20 -68 17 0 19 49 12 278 0 6 -9 12
-19 12 -17 0 -19 -6 -14 -60 l6 -60 -82 0 -81 0 0 60 c0 58 -1 60 -26 60 -20
0 -25 -4 -20 -16z"/>
<path d="M4020 2725 c0 -138 1 -145 20 -145 19 0 20 7 20 145 0 138 -1 145
-20 145 -19 0 -20 -7 -20 -145z"/>
<path d="M4330 2855 c0 -11 12 -15 45 -15 l45 0 0 -130 c0 -128 0 -130 23
-130 22 0 22 1 19 130 l-3 130 50 0 c39 0 51 4 51 15 0 12 -19 15 -115 15 -96
0 -115 -3 -115 -15z"/>
<path d="M4844 2854 c3 -9 6 -74 6 -145 0 -116 2 -129 18 -129 15 0 17 11 14
107 -3 93 -2 106 10 93 8 -8 52 -57 98 -107 45 -51 87 -93 91 -93 5 0 9 65 9
145 0 134 -1 145 -18 145 -18 0 -19 -8 -14 -100 3 -55 1 -100 -4 -99 -5 0 -47
45 -94 99 -48 56 -93 99 -104 99 -13 1 -16 -4 -12 -15z"/>
<path d="M5140 2855 c0 -11 12 -15 45 -15 l45 0 0 -130 c0 -128 0 -130 23
-130 22 0 22 1 19 130 l-4 130 51 0 c39 0 51 4 51 15 0 12 -19 15 -115 15 -96
0 -115 -3 -115 -15z"/>
<path d="M1450 2685 c0 -11 12 -15 50 -15 38 0 50 4 50 15 0 11 -12 15 -50 15
-38 0 -50 -4 -50 -15z"/>
<path d="M3160 2685 c0 -11 12 -15 49 -15 34 0 51 4 55 15 4 12 -5 15 -49 15
-42 0 -55 -3 -55 -15z"/>
<path d="M1406 2210 c235 -456 680 -821 1161 -954 375 -103 701 -103 1076 0
484 133 931 501 1166 959 l41 80 -447 3 -447 2 -25 -24 c-62 -59 -161 -72
-246 -32 -27 12 -56 30 -64 39 -12 15 -60 17 -516 17 -456 0 -504 -2 -516 -17
-25 -30 -111 -63 -164 -63 -55 0 -120 26 -149 59 -19 21 -22 21 -468 21 l-449
0 47 -90z"/>
</g>
</svg>
